<mxfile host="Electron" modified="2024-07-06T17:47:28.850Z" agent="Mozilla/5.0 (X11; Linux x86_64) AppleWebKit/537.36 (KHTML, like Gecko) draw.io/24.5.3 Chrome/124.0.6367.207 Electron/30.0.6 Safari/537.36" etag="edT9MFlEKFM3bwITKiKG" version="24.5.3" type="device">
  <diagram name="Page-1" id="ZcRAXSWJTWcisyccbfvs">
    <mxGraphModel dx="828" dy="-137" grid="1" gridSize="5" guides="1" tooltips="1" connect="1" arrows="1" fold="1" page="0" pageScale="1" pageWidth="827" pageHeight="1169" math="0" shadow="0">
      <root>
        <mxCell id="0" />
        <mxCell id="1" parent="0" />
        <mxCell id="aZooovynMMBxmRVDPCQJ-146" value="" style="rounded=0;whiteSpace=wrap;html=1;strokeColor=none;fillColor=none;" parent="1" vertex="1">
          <mxGeometry x="-210" y="570" width="500" height="500" as="geometry" />
        </mxCell>
        <mxCell id="aZooovynMMBxmRVDPCQJ-81" value="" style="endArrow=none;html=1;rounded=0;strokeWidth=4;strokeColor=#FFFFFF;" parent="1" edge="1">
          <mxGeometry width="50" height="50" relative="1" as="geometry">
            <mxPoint x="245" y="820" as="sourcePoint" />
            <mxPoint x="245" y="820" as="targetPoint" />
            <Array as="points">
              <mxPoint x="245" y="875" />
              <mxPoint x="220" y="855" />
              <mxPoint x="220" y="880" />
              <mxPoint x="200" y="920" />
              <mxPoint x="180" y="920" />
              <mxPoint x="140" y="880" />
              <mxPoint x="-60" y="880" />
              <mxPoint x="-100" y="920" />
              <mxPoint x="-140" y="920" />
              <mxPoint x="-140" y="720" />
              <mxPoint x="-100" y="720" />
              <mxPoint x="-60" y="760" />
              <mxPoint x="140" y="760" />
              <mxPoint x="180" y="720" />
              <mxPoint x="200" y="720" />
              <mxPoint x="220" y="760" />
              <mxPoint x="220" y="785" />
              <mxPoint x="245" y="765" />
            </Array>
          </mxGeometry>
        </mxCell>
        <mxCell id="aZooovynMMBxmRVDPCQJ-82" value="" style="endArrow=none;html=1;rounded=0;strokeWidth=4;strokeColor=#FFFFFF;" parent="1" edge="1">
          <mxGeometry width="50" height="50" relative="1" as="geometry">
            <mxPoint x="-60" y="880" as="sourcePoint" />
            <mxPoint x="-60" y="760" as="targetPoint" />
          </mxGeometry>
        </mxCell>
        <mxCell id="aZooovynMMBxmRVDPCQJ-83" value="" style="endArrow=none;html=1;rounded=0;strokeWidth=4;strokeColor=#FFFFFF;" parent="1" edge="1">
          <mxGeometry width="50" height="50" relative="1" as="geometry">
            <mxPoint x="140" y="880" as="sourcePoint" />
            <mxPoint x="140" y="760" as="targetPoint" />
          </mxGeometry>
        </mxCell>
        <mxCell id="aZooovynMMBxmRVDPCQJ-84" value="" style="endArrow=none;html=1;rounded=0;strokeWidth=4;strokeColor=#FFFFFF;" parent="1" edge="1">
          <mxGeometry width="50" height="50" relative="1" as="geometry">
            <mxPoint x="220" y="880" as="sourcePoint" />
            <mxPoint x="220" y="760" as="targetPoint" />
          </mxGeometry>
        </mxCell>
        <mxCell id="aZooovynMMBxmRVDPCQJ-89" value="" style="endArrow=none;html=1;rounded=0;strokeWidth=4;strokeColor=#FFFFFF;" parent="1" edge="1">
          <mxGeometry width="50" height="50" relative="1" as="geometry">
            <mxPoint x="-140" y="855" as="sourcePoint" />
            <mxPoint x="220" y="855" as="targetPoint" />
          </mxGeometry>
        </mxCell>
        <mxCell id="aZooovynMMBxmRVDPCQJ-90" value="" style="endArrow=none;html=1;rounded=0;strokeWidth=4;strokeColor=#FFFFFF;" parent="1" edge="1">
          <mxGeometry width="50" height="50" relative="1" as="geometry">
            <mxPoint x="-140" y="785" as="sourcePoint" />
            <mxPoint x="220" y="785" as="targetPoint" />
          </mxGeometry>
        </mxCell>
        <mxCell id="aZooovynMMBxmRVDPCQJ-97" value="" style="rounded=0;whiteSpace=wrap;html=1;strokeColor=none;fillColor=#C4EFFF;" parent="1" vertex="1">
          <mxGeometry x="-90" y="768" width="10" height="10" as="geometry" />
        </mxCell>
        <mxCell id="aZooovynMMBxmRVDPCQJ-98" value="" style="rounded=0;whiteSpace=wrap;html=1;strokeColor=none;fillColor=#C4EFFF;" parent="1" vertex="1">
          <mxGeometry x="-75" y="768" width="10" height="10" as="geometry" />
        </mxCell>
        <mxCell id="aZooovynMMBxmRVDPCQJ-99" value="" style="rounded=0;whiteSpace=wrap;html=1;strokeColor=none;fillColor=#C4EFFF;" parent="1" vertex="1">
          <mxGeometry x="-55" y="768" width="10" height="10" as="geometry" />
        </mxCell>
        <mxCell id="aZooovynMMBxmRVDPCQJ-100" value="" style="rounded=0;whiteSpace=wrap;html=1;strokeColor=none;fillColor=#C4EFFF;" parent="1" vertex="1">
          <mxGeometry x="-40" y="768" width="10" height="10" as="geometry" />
        </mxCell>
        <mxCell id="aZooovynMMBxmRVDPCQJ-101" value="" style="rounded=0;whiteSpace=wrap;html=1;strokeColor=none;fillColor=#C4EFFF;" parent="1" vertex="1">
          <mxGeometry x="-25" y="768" width="10" height="10" as="geometry" />
        </mxCell>
        <mxCell id="aZooovynMMBxmRVDPCQJ-102" value="" style="rounded=0;whiteSpace=wrap;html=1;strokeColor=none;fillColor=#C4EFFF;" parent="1" vertex="1">
          <mxGeometry x="-10" y="768" width="10" height="10" as="geometry" />
        </mxCell>
        <mxCell id="aZooovynMMBxmRVDPCQJ-108" value="" style="rounded=0;whiteSpace=wrap;html=1;strokeColor=none;fillColor=#C4EFFF;" parent="1" vertex="1">
          <mxGeometry x="80" y="768" width="10" height="10" as="geometry" />
        </mxCell>
        <mxCell id="aZooovynMMBxmRVDPCQJ-109" value="" style="rounded=0;whiteSpace=wrap;html=1;strokeColor=none;fillColor=#C4EFFF;" parent="1" vertex="1">
          <mxGeometry x="95" y="768" width="10" height="10" as="geometry" />
        </mxCell>
        <mxCell id="aZooovynMMBxmRVDPCQJ-110" value="" style="rounded=0;whiteSpace=wrap;html=1;strokeColor=none;fillColor=#C4EFFF;" parent="1" vertex="1">
          <mxGeometry x="110" y="768" width="10" height="10" as="geometry" />
        </mxCell>
        <mxCell id="aZooovynMMBxmRVDPCQJ-111" value="" style="rounded=0;whiteSpace=wrap;html=1;strokeColor=none;fillColor=#C4EFFF;" parent="1" vertex="1">
          <mxGeometry x="125" y="768" width="10" height="10" as="geometry" />
        </mxCell>
        <mxCell id="aZooovynMMBxmRVDPCQJ-112" value="" style="rounded=0;whiteSpace=wrap;html=1;strokeColor=none;fillColor=#C4EFFF;" parent="1" vertex="1">
          <mxGeometry x="145" y="768" width="10" height="10" as="geometry" />
        </mxCell>
        <mxCell id="aZooovynMMBxmRVDPCQJ-113" value="" style="rounded=0;whiteSpace=wrap;html=1;strokeColor=none;fillColor=#C4EFFF;" parent="1" vertex="1">
          <mxGeometry x="160" y="768" width="10" height="10" as="geometry" />
        </mxCell>
        <mxCell id="aZooovynMMBxmRVDPCQJ-121" value="" style="rounded=0;whiteSpace=wrap;html=1;strokeColor=none;fillColor=#C4EFFF;" parent="1" vertex="1">
          <mxGeometry x="-90" y="862" width="10" height="10" as="geometry" />
        </mxCell>
        <mxCell id="aZooovynMMBxmRVDPCQJ-122" value="" style="rounded=0;whiteSpace=wrap;html=1;strokeColor=none;fillColor=#C4EFFF;" parent="1" vertex="1">
          <mxGeometry x="-75" y="862" width="10" height="10" as="geometry" />
        </mxCell>
        <mxCell id="aZooovynMMBxmRVDPCQJ-123" value="" style="rounded=0;whiteSpace=wrap;html=1;strokeColor=none;fillColor=#C4EFFF;" parent="1" vertex="1">
          <mxGeometry x="-55" y="862" width="10" height="10" as="geometry" />
        </mxCell>
        <mxCell id="aZooovynMMBxmRVDPCQJ-124" value="" style="rounded=0;whiteSpace=wrap;html=1;strokeColor=none;fillColor=#C4EFFF;" parent="1" vertex="1">
          <mxGeometry x="-40" y="862" width="10" height="10" as="geometry" />
        </mxCell>
        <mxCell id="aZooovynMMBxmRVDPCQJ-125" value="" style="rounded=0;whiteSpace=wrap;html=1;strokeColor=none;fillColor=#C4EFFF;" parent="1" vertex="1">
          <mxGeometry x="-25" y="862" width="10" height="10" as="geometry" />
        </mxCell>
        <mxCell id="aZooovynMMBxmRVDPCQJ-126" value="" style="rounded=0;whiteSpace=wrap;html=1;strokeColor=none;fillColor=#C4EFFF;" parent="1" vertex="1">
          <mxGeometry x="-10" y="862" width="10" height="10" as="geometry" />
        </mxCell>
        <mxCell id="aZooovynMMBxmRVDPCQJ-132" value="" style="rounded=0;whiteSpace=wrap;html=1;strokeColor=none;fillColor=#C4EFFF;" parent="1" vertex="1">
          <mxGeometry x="80" y="862" width="10" height="10" as="geometry" />
        </mxCell>
        <mxCell id="aZooovynMMBxmRVDPCQJ-133" value="" style="rounded=0;whiteSpace=wrap;html=1;strokeColor=none;fillColor=#C4EFFF;" parent="1" vertex="1">
          <mxGeometry x="95" y="862" width="10" height="10" as="geometry" />
        </mxCell>
        <mxCell id="aZooovynMMBxmRVDPCQJ-134" value="" style="rounded=0;whiteSpace=wrap;html=1;strokeColor=none;fillColor=#C4EFFF;" parent="1" vertex="1">
          <mxGeometry x="110" y="862" width="10" height="10" as="geometry" />
        </mxCell>
        <mxCell id="aZooovynMMBxmRVDPCQJ-135" value="" style="rounded=0;whiteSpace=wrap;html=1;strokeColor=none;fillColor=#C4EFFF;" parent="1" vertex="1">
          <mxGeometry x="125" y="862" width="10" height="10" as="geometry" />
        </mxCell>
        <mxCell id="aZooovynMMBxmRVDPCQJ-136" value="" style="rounded=0;whiteSpace=wrap;html=1;strokeColor=none;fillColor=#C4EFFF;" parent="1" vertex="1">
          <mxGeometry x="145" y="862" width="10" height="10" as="geometry" />
        </mxCell>
        <mxCell id="aZooovynMMBxmRVDPCQJ-137" value="" style="rounded=0;whiteSpace=wrap;html=1;strokeColor=none;fillColor=#C4EFFF;" parent="1" vertex="1">
          <mxGeometry x="160" y="862" width="10" height="10" as="geometry" />
        </mxCell>
        <mxCell id="aZooovynMMBxmRVDPCQJ-142" value="" style="endArrow=none;html=1;rounded=0;strokeWidth=4;strokeColor=#FFFFFF;" parent="1" edge="1">
          <mxGeometry width="50" height="50" relative="1" as="geometry">
            <mxPoint x="-140" y="880" as="sourcePoint" />
            <mxPoint x="220" y="880" as="targetPoint" />
          </mxGeometry>
        </mxCell>
        <mxCell id="aZooovynMMBxmRVDPCQJ-143" value="" style="endArrow=none;html=1;rounded=0;strokeWidth=4;strokeColor=#FFFFFF;" parent="1" edge="1">
          <mxGeometry width="50" height="50" relative="1" as="geometry">
            <mxPoint x="-140" y="760" as="sourcePoint" />
            <mxPoint x="220" y="760" as="targetPoint" />
          </mxGeometry>
        </mxCell>
        <mxCell id="bXdlv_uk7NeRqHD_MFzQ-2" value="" style="rounded=0;whiteSpace=wrap;html=1;fillColor=none;strokeWidth=3;strokeColor=#F0CC16;" parent="1" vertex="1">
          <mxGeometry x="-50" y="795" width="180" height="50" as="geometry" />
        </mxCell>
        <mxCell id="bXdlv_uk7NeRqHD_MFzQ-3" value="" style="rounded=0;whiteSpace=wrap;html=1;fillColor=none;strokeWidth=3;strokeColor=#F0CC16;" parent="1" vertex="1">
          <mxGeometry x="-45" y="800" width="170" height="40" as="geometry" />
        </mxCell>
        <mxCell id="bXdlv_uk7NeRqHD_MFzQ-4" value="" style="rounded=0;whiteSpace=wrap;html=1;fillColor=none;strokeWidth=3;strokeColor=#F0CC16;" parent="1" vertex="1">
          <mxGeometry x="150" y="795" width="60" height="50" as="geometry" />
        </mxCell>
        <mxCell id="bXdlv_uk7NeRqHD_MFzQ-5" value="" style="rounded=0;whiteSpace=wrap;html=1;fillColor=none;strokeWidth=3;strokeColor=#F0CC16;" parent="1" vertex="1">
          <mxGeometry x="155" y="800" width="50" height="40" as="geometry" />
        </mxCell>
        <mxCell id="bXdlv_uk7NeRqHD_MFzQ-6" value="" style="rounded=0;whiteSpace=wrap;html=1;fillColor=none;strokeWidth=3;strokeColor=#F0CC16;" parent="1" vertex="1">
          <mxGeometry x="-130" y="795" width="60" height="50" as="geometry" />
        </mxCell>
        <mxCell id="bXdlv_uk7NeRqHD_MFzQ-7" value="" style="rounded=0;whiteSpace=wrap;html=1;fillColor=none;strokeWidth=3;strokeColor=#F0CC16;" parent="1" vertex="1">
          <mxGeometry x="-125" y="800" width="50" height="40" as="geometry" />
        </mxCell>
        <mxCell id="bXdlv_uk7NeRqHD_MFzQ-9" value="" style="ellipse;whiteSpace=wrap;html=1;strokeWidth=4;strokeColor=#BEF0B4;" parent="1" vertex="1">
          <mxGeometry x="-30" y="810" width="20" height="20" as="geometry" />
        </mxCell>
        <mxCell id="bXdlv_uk7NeRqHD_MFzQ-10" value="" style="ellipse;whiteSpace=wrap;html=1;strokeWidth=4;strokeColor=#BEF0B4;" parent="1" vertex="1">
          <mxGeometry x="-110" y="810" width="20" height="20" as="geometry" />
        </mxCell>
        <mxCell id="bXdlv_uk7NeRqHD_MFzQ-11" value="" style="ellipse;whiteSpace=wrap;html=1;strokeWidth=4;strokeColor=#BEF0B4;" parent="1" vertex="1">
          <mxGeometry x="90" y="810" width="20" height="20" as="geometry" />
        </mxCell>
        <mxCell id="bXdlv_uk7NeRqHD_MFzQ-12" value="" style="ellipse;whiteSpace=wrap;html=1;strokeWidth=4;strokeColor=#BEF0B4;" parent="1" vertex="1">
          <mxGeometry x="10" y="810" width="20" height="20" as="geometry" />
        </mxCell>
        <mxCell id="bXdlv_uk7NeRqHD_MFzQ-13" value="" style="ellipse;whiteSpace=wrap;html=1;strokeWidth=4;strokeColor=#BEF0B4;" parent="1" vertex="1">
          <mxGeometry x="50" y="810" width="20" height="20" as="geometry" />
        </mxCell>
        <mxCell id="bXdlv_uk7NeRqHD_MFzQ-14" value="" style="ellipse;whiteSpace=wrap;html=1;strokeWidth=4;strokeColor=#BEF0B4;" parent="1" vertex="1">
          <mxGeometry x="170" y="810" width="20" height="20" as="geometry" />
        </mxCell>
      </root>
    </mxGraphModel>
  </diagram>
</mxfile>
